<svg width="359" height="368" viewBox="0 0 359 368" fill="none" xmlns="http://www.w3.org/2000/svg">
<path d="M334 26.6441C345 25 344.643 8.60668 345.462 0C346 8.5 346.5 25.5 358.834 26.6441C347 29 345.462 41 345.462 53.2882C344.5 40.5 343.5 29 334 26.6441Z" fill="#FDF6C5"/>
<path d="M0.939453 42.6757C7.73157 38.8112 7.24642 32.1021 7.73157 27.0568C7.73157 34.7857 9.83389 41.5486 15.6557 42.6757C7.73157 45.4131 7.73157 59.0998 7.73157 58.2947C7.73157 50.0826 5.46753 45.4131 0.939453 42.6757Z" fill="#FDF6C5"/>
<path d="M14 349.916C21.6411 345.483 21.0953 337.787 21.6411 332C21.6411 340.866 24.0062 348.623 30.5558 349.916C21.6411 353.056 21.6411 368.755 21.6411 367.832C21.6411 358.412 19.0941 353.056 14 349.916Z" fill="#FDF6C5"/>
</svg>
